<svg width="120" height="32" viewBox="0 0 120 32" fill="none" xmlns="http://www.w3.org/2000/svg">
<path fill-rule="evenodd" clip-rule="evenodd" d="M109.957 22.9546C111.101 20.7586 111.722 18.2461 111.722 15.5768C111.722 11.9843 110.597 8.67581 108.588 6.04064L109.08 0.917015L103.78 1.94998C101.468 0.707573 98.7295 0 95.6711 0C92.584 0 89.8094 0.720926 87.4654 1.98512L81.9855 0.917015L82.4994 6.27022C80.5723 8.86681 79.4902 12.0879 79.4902 15.5768C79.4902 24.1797 86.0695 31.1537 95.6711 31.1537C99.2502 31.1537 102.391 30.1846 104.923 28.5234C107.419 30.6556 110.956 32.2508 115.058 30.7394C119.142 29.2346 122.021 26.0461 118.228 21.2924C116.441 23.1387 112.323 26.0095 109.957 22.9546ZM95.6408 24.0232C100.789 24.0232 104.247 20.2838 104.247 15.6709C104.247 11.058 100.789 7.31858 95.6408 7.31858C90.4924 7.31858 86.9646 11.058 86.9646 15.6709C86.9646 20.2838 90.4924 24.0232 95.6408 24.0232ZM25.0803 22.2369C25.3659 20.9947 25.5087 19.4954 25.5087 17.7392V0.883313H17.9053V16.7111C17.9053 19.4526 17.5555 21.3017 16.8558 22.2583C15.9135 23.5577 14.5142 24.2073 12.6579 24.2073C11.8298 24.2073 11.073 24.0431 10.3877 23.7147C8.71706 22.9294 7.81038 21.5444 7.66759 19.5597C7.62475 18.9314 7.60334 17.9819 7.60334 16.7111V0.883313H0V17.7392C0 19.9095 0.157064 21.6372 0.471193 22.9223C0.913828 24.7356 1.73485 26.242 2.93425 27.4414C5.20454 29.726 8.3601 30.8683 12.4009 30.8683C16.3704 30.8683 19.5402 29.7474 21.9105 27.5057C23.5811 25.9208 24.6377 24.1645 25.0803 22.2369ZM53.2448 30.1187H60.8481V0.883313H53.2448V18.7672L39.2589 0.883313H31.6556V30.1187H39.2589V12.2134L53.2448 30.1187ZM74.5984 30.1187H66.995V0.883313H74.5984V30.1187Z" fill="#FF9040"/>
</svg>
