<svg width="24" height="24" viewBox="0 0 24 24" fill="none" xmlns="http://www.w3.org/2000/svg">
<g clip-path="url(#clip0_554_118121)">
<g clip-path="url(#clip1_554_118121)">
<path fill-rule="evenodd" clip-rule="evenodd" d="M-1 2H37V3.53908H-1V2ZM-1 5.07812H37V6.61721H-1V5.07812ZM-1 8.15233H37V9.69529H-1V8.15233ZM-1 11.2305H37V12.7695H-1V11.2305ZM-1 14.3086H37V15.8477H-1V14.3086ZM-1 17.3828H37V18.9219H-1V17.3828ZM-1 20.4609H37V22H-1V20.4609Z" fill="#BD3D44"/>
<path fill-rule="evenodd" clip-rule="evenodd" d="M-1 3.53906H37V5.0781H-1V3.53906ZM-1 6.61715H37V8.15231H-1V6.61715ZM-1 9.6914H37V11.2304H-1V9.6914ZM-1 12.7695H37V14.3086H-1V12.7695ZM-1 15.8476H37V17.3867H-1V15.8476ZM-1 18.9219H37V20.4609H-1V18.9219Z" fill="white"/>
<path fill-rule="evenodd" clip-rule="evenodd" d="M-1 2H14.1992V12.7695H-1V2Z" fill="#192F5D"/>
<path fill-rule="evenodd" clip-rule="evenodd" d="M0.265604 2.46094L0.406229 2.88665H0.851562L0.492146 3.1484L0.628896 3.57806L0.265604 3.31244L-0.0937708 3.57415L0.0429375 3.1484L-0.320312 2.88665H0.132812L0.265604 2.46094ZM2.80077 2.46094L2.93748 2.88665H3.38669L3.0234 3.1484L3.16015 3.57806L2.80077 3.31244L2.43748 3.57415L2.57419 3.1484L2.21481 2.88665H2.66015L2.80077 2.46094ZM5.33202 2.46094L5.47265 2.88669H5.91406L5.55469 3.14844L5.69135 3.5781L5.3281 3.31248L4.96873 3.57419L5.10544 3.14844L4.74215 2.88669H5.1914L5.33202 2.46094ZM7.86719 2.46094L8.00385 2.88669H8.4531L8.08981 3.14844L8.23044 3.5781L7.86714 3.31248L7.50389 3.57419L7.64452 3.14844L7.28123 2.88669H7.72656L7.86719 2.46094ZM10.3984 2.46094L10.5391 2.88669H10.9844L10.625 3.14844L10.7617 3.5781L10.3984 3.31248L10.039 3.57419L10.1758 3.14844L9.81639 2.88669H10.2617L10.3984 2.46094ZM12.9336 2.46094L13.0703 2.88669H13.5195L13.1562 3.14844L13.2969 3.5781L12.9336 3.31248L12.5703 3.57419L12.7109 3.14844L12.3476 2.88669H12.7969L12.9336 2.46094ZM1.53515 3.53898L1.67185 3.96481H2.12106L1.75777 4.22648L1.8906 4.65231L1.53902 4.39056L1.17577 4.65227L1.30465 4.22652L0.953104 3.96477H1.39844L1.53515 3.53898ZM4.0664 3.53898L4.20702 3.96481H4.65231L4.28902 4.22648L4.42969 4.65231L4.06635 4.39056L3.7031 4.65227L3.84373 4.22652L3.48044 3.96477H3.92965L4.0664 3.53898ZM6.60156 3.53898L6.73823 3.96481H7.18748L6.82419 4.22648L6.9609 4.65231L6.60152 4.39056L6.23827 4.65227L6.37498 4.22656L6.0156 3.96481H6.46094L6.60156 3.53898ZM9.13281 3.53898L9.27344 3.96481H9.71873L9.35544 4.22648L9.49606 4.65231L9.13277 4.39056L8.77339 4.65227L8.91014 4.22652L8.54685 3.96477H8.99998L9.13281 3.53898ZM11.6679 3.53898L11.8046 3.96481H12.2539L11.8906 4.22648L12.0273 4.65231L11.6679 4.39056L11.3046 4.65227L11.4414 4.22652L11.082 3.96477H11.5273L11.6679 3.53898ZM0.265604 4.61331L0.406229 5.0469H0.851562L0.492146 5.3086L0.628896 5.7344L0.265604 5.46877L-0.0937708 5.7344L0.0429375 5.30469L-0.320312 5.04302H0.132812L0.265604 4.61331ZM2.80077 4.61331L2.93748 5.0429H3.38669L3.0234 5.3046L3.16015 5.73044L2.80077 5.46477L2.43748 5.7304L2.57419 5.30073L2.21481 5.03902H2.66015L2.80077 4.61331ZM5.33202 4.61331L5.47265 5.04298H5.91406L5.55469 5.30469L5.69135 5.73052L5.3281 5.46485L4.96873 5.73048L5.10544 5.30081L4.74215 5.0391H5.1914L5.33202 4.61331ZM7.86719 4.61331L8.00385 5.04298H8.4531L8.08981 5.30469L8.23044 5.73052L7.86714 5.46485L7.50389 5.73048L7.64452 5.30081L7.28123 5.0391H7.72656L7.86719 4.61331ZM10.3984 4.61331L10.5391 5.04298H10.9844L10.625 5.30465L10.7617 5.73048L10.3984 5.46481L10.039 5.73044L10.1758 5.30077L9.81639 5.03906H10.2617L10.3984 4.61331ZM12.9336 4.61331L13.0703 5.04298H13.5195L13.1562 5.30469L13.2969 5.73052L12.9336 5.46485L12.5703 5.73048L12.7109 5.30081L12.3476 5.0391H12.7969L12.9336 4.61331ZM1.53515 5.6914L1.67185 6.11719H2.12106L1.75777 6.37885L1.89452 6.80856L1.53515 6.54294L1.17185 6.80465L1.30856 6.3789L0.949187 6.11719H1.39456L1.53515 5.6914ZM4.0664 5.6914L4.20702 6.11719H4.65231L4.28902 6.37885L4.42969 6.80856L4.06635 6.54294L3.7031 6.80465L3.84373 6.3789L3.48044 6.11719H3.92965L4.0664 5.6914ZM6.60156 5.6914L6.73823 6.11719H7.18748L6.82419 6.37885L6.9609 6.80856L6.60152 6.54294L6.23827 6.80465L6.37498 6.3789L6.0156 6.11719H6.46094L6.60156 5.6914ZM9.13281 5.6914L9.27344 6.11719H9.71873L9.35935 6.37885L9.49606 6.80856L9.13277 6.54294L8.77339 6.80465L8.91014 6.3789L8.54685 6.11719H8.99998L9.13281 5.6914ZM11.6679 5.6914L11.8046 6.11719H12.2539L11.8906 6.37885L12.0273 6.80856L11.6679 6.54294L11.3046 6.80465L11.4414 6.3789L11.082 6.11719H11.5273L11.6679 5.6914ZM0.265604 6.76952L0.406229 7.19531H0.851562L0.492146 7.45698L0.628896 7.88669L0.265604 7.62106L-0.0937708 7.88277L0.0429375 7.45702L-0.320312 7.19531H0.132812L0.265604 6.76952ZM2.80077 6.76952L2.93748 7.19531H3.38669L3.0234 7.45698L3.16015 7.88281L2.80077 7.62106L2.43748 7.88277L2.57419 7.45702L2.21481 7.19531H2.66015L2.80077 6.76952ZM5.33202 6.76952L5.47265 7.19531H5.91406L5.55469 7.45698L5.69135 7.88669L5.3281 7.62106L4.96873 7.88277L5.10544 7.45702L4.74215 7.19531H5.1914L5.33202 6.76952ZM7.86719 6.76952L8.00385 7.19531H8.4531L8.08981 7.45698L8.23044 7.88669L7.86714 7.62106L7.50389 7.88277L7.64452 7.45702L7.28123 7.19531H7.72656L7.86719 6.76952ZM10.3984 6.76952L10.5391 7.19531H10.9844L10.625 7.45698L10.7617 7.88669L10.3984 7.62106L10.039 7.88277L10.1758 7.45702L9.81639 7.19531H10.2617L10.3984 6.76952ZM12.9336 6.76952L13.0703 7.19531H13.5195L13.1562 7.45698L13.2969 7.88669L12.9336 7.62106L12.5703 7.88277L12.7109 7.45702L12.3476 7.19531H12.7969L12.9336 6.76952ZM1.53515 7.84765L1.67185 8.27344H2.12106L1.75777 8.5351L1.89452 8.96094L1.53515 8.69531L1.17185 8.96094L1.30856 8.53123L0.949187 8.26952H1.39456L1.53515 7.84765ZM4.0664 7.84765L4.20702 8.27344H4.65231L4.28902 8.5351L4.42969 8.96094L4.06635 8.69531L3.7031 8.96094L3.84373 8.53123L3.48044 8.26952H3.92965L4.0664 7.84765ZM6.60156 7.84765L6.73823 8.27344H7.18748L6.82419 8.5351L6.9609 8.96094L6.60152 8.69531L6.23827 8.96094L6.37498 8.53123L6.0156 8.26952H6.46094L6.60156 7.84765ZM9.13281 7.84765L9.27344 8.27344H9.71873L9.35935 8.5351L9.49606 8.96094L9.13277 8.69531L8.77339 8.96094L8.91014 8.53123L8.54685 8.26952H8.99998L9.13281 7.84765ZM11.6679 7.84765L11.8046 8.27344H12.2539L11.8906 8.5351L12.0273 8.96094L11.6679 8.69531L11.3046 8.96094L11.4414 8.53123L11.082 8.26952H11.5273L11.6679 7.84765ZM0.265604 8.92185L0.406229 9.35156H0.851562L0.492146 9.61323L0.628896 10.0351L0.265604 9.77344L-0.0937708 10.0351L0.0429375 9.60935L-0.320312 9.34765H0.132812L0.265604 8.92185ZM2.80077 8.92185L2.93748 9.35156H3.38669L3.0234 9.61323L3.16406 10.0351L2.80073 9.77344L2.43748 10.0351L2.5781 9.60935L2.21481 9.34765H2.66015L2.80077 8.92185ZM5.33202 8.92185L5.47265 9.35156H5.91406L5.55469 9.61323L5.69135 10.0351L5.3281 9.77344L4.96873 10.0351L5.10544 9.60935L4.74215 9.34765H5.1914L5.33202 8.92185ZM7.86719 8.92185L8.00385 9.35156H8.4531L8.08981 9.61323L8.23044 10.0351L7.86714 9.77344L7.50389 10.0351L7.64452 9.60935L7.28123 9.34765H7.72656L7.86719 8.92185ZM10.3984 8.92185L10.5391 9.35156H10.9844L10.625 9.61323L10.7617 10.0351L10.3984 9.77344L10.039 10.0351L10.1758 9.60935L9.81639 9.34765H10.2617L10.3984 8.92185ZM12.9336 8.92185L13.0703 9.35156H13.5195L13.1562 9.61323L13.2969 10.0351L12.9336 9.77344L12.5703 10.0351L12.7109 9.60935L12.3476 9.34765H12.7969L12.9336 8.92185ZM1.53515 9.99998L1.67185 10.4258H2.12106L1.75777 10.6875L1.89452 11.1172L1.53515 10.8516L1.17185 11.1132L1.30856 10.6875L0.949187 10.4258H1.39456L1.53515 9.99998ZM4.0664 9.99998L4.20702 10.4258H4.65231L4.28902 10.6875L4.42969 11.1172L4.06635 10.8516L3.7031 11.1132L3.84373 10.6875L3.48044 10.4258H3.92965L4.0664 9.99998ZM6.60156 9.99998L6.73823 10.4258H7.18748L6.82419 10.6875L6.9609 11.1172L6.60152 10.8516L6.23827 11.1132L6.37498 10.6875L6.0156 10.4258H6.46094L6.60156 9.99998ZM9.13281 9.99998L9.27344 10.4258H9.71873L9.35935 10.6875L9.49606 11.1172L9.13277 10.8516L8.77339 11.1132L8.91014 10.6875L8.54685 10.4258H8.99998L9.13281 9.99998ZM11.6679 9.99998L11.8046 10.4258H12.2539L11.8906 10.6875L12.0273 11.1172L11.6679 10.8516L11.3046 11.1132L11.4414 10.6875L11.082 10.4258H11.5273L11.6679 9.99998ZM0.265604 11.0781L0.406229 11.5039H0.851562L0.492146 11.7656L0.628896 12.1914L0.265604 11.9297L-0.0937708 12.1914L0.0429375 11.7617L-0.320312 11.5H0.132812L0.265604 11.0781ZM2.80077 11.0781L2.93748 11.5039H3.38669L3.0234 11.7656L3.16406 12.1914L2.80073 11.9297L2.43748 12.1914L2.5781 11.7617L2.21481 11.5H2.66015L2.80077 11.0781ZM5.33202 11.0781L5.47265 11.5039H5.91406L5.56248 11.7656L5.69919 12.1914L5.3359 11.9297L4.97652 12.1914L5.11327 11.7617L4.74998 11.5H5.19919L5.33202 11.0781ZM7.86719 11.0781L8.00385 11.5039H8.4531L8.08981 11.7656L8.23044 12.1914L7.86714 11.9297L7.50389 12.1914L7.64452 11.7617L7.28123 11.5H7.72656L7.86719 11.0781ZM10.3984 11.0781L10.5391 11.5039H10.9844L10.625 11.7656L10.7617 12.1914L10.3984 11.9297L10.039 12.1914L10.1758 11.7617L9.81639 11.5H10.2617L10.3984 11.0781ZM12.9336 11.0781L13.0703 11.5039H13.5195L13.1562 11.7656L13.2969 12.1914L12.9336 11.9297L12.5703 12.1914L12.7109 11.7617L12.3476 11.5H12.7969L12.9336 11.0781Z" fill="white"/>
</g>
</g>
<rect x="1" y="1" width="22" height="22" rx="11" stroke="#DEDEDE" stroke-width="2"/>
<defs>
<clipPath id="clip0_554_118121">
<rect x="2" y="2" width="20" height="20" rx="10" fill="white"/>
</clipPath>
<clipPath id="clip1_554_118121">
<rect width="26.6667" height="20" fill="white" transform="translate(-1 2)"/>
</clipPath>
</defs>
</svg>
